<?xml version="1.0" standalone="no"?>
<!DOCTYPE svg PUBLIC "-//W3C//DTD SVG 20010904//EN"
 "http://www.w3.org/TR/2001/REC-SVG-20010904/DTD/svg10.dtd">
<svg version="1.0" xmlns="http://www.w3.org/2000/svg"
 width="600.000000pt" height="400.000000pt" viewBox="0 0 600.000000 400.000000"
 preserveAspectRatio="xMidYMid meet">

<g transform="translate(0.000000,400.000000) scale(0.100000,-0.100000)"
fill="#000000" stroke="none">
<path d="M0 2000 l0 -2000 3000 0 3000 0 0 2000 0 2000 -3000 0 -3000 0 0
-2000z m2344 298 c8 -13 8 -23 0 -35 -10 -16 -31 -18 -158 -21 l-146 -3 0 -89
0 -90 70 0 c59 0 71 -3 80 -20 8 -14 8 -26 0 -40 -9 -17 -21 -20 -80 -20 l-70
0 0 -90 0 -89 146 -3 c127 -3 148 -5 158 -20 8 -13 8 -23 0 -35 -10 -16 -33
-18 -198 -21 l-186 -2 0 300 0 300 186 -2 c165 -3 188 -5 198 -20z m960 6 c3
-9 6 -58 6 -110 l0 -94 53 30 c89 50 198 37 231 -28 9 -18 16 -83 21 -190 7
-170 3 -192 -35 -192 -36 0 -43 26 -48 183 -2 84 -9 158 -14 165 -20 24 -76
13 -143 -29 l-64 -40 -3 -131 c-3 -112 -6 -132 -20 -142 -13 -8 -23 -8 -35 0
-16 10 -18 37 -21 289 -2 196 1 282 9 291 16 19 55 18 63 -2z m-776 -26 c7 -7
12 -36 12 -65 l0 -52 86 -3 c70 -2 89 -6 98 -20 8 -13 8 -23 0 -35 -9 -15 -28
-19 -98 -21 l-86 -3 0 -127 c0 -86 4 -132 12 -140 13 -13 97 -16 113 -4 6 4
18 19 28 35 18 29 45 35 65 15 17 -17 15 -49 -7 -82 -30 -44 -58 -55 -144 -56
-77 0 -80 1 -113 34 l-34 34 0 145 0 146 -31 3 c-64 6 -64 70 0 76 30 3 31 5
31 52 0 27 3 55 6 64 7 19 45 21 62 4z m656 -140 c8 -13 8 -23 0 -35 -9 -15
-29 -18 -112 -21 l-100 -3 -46 -43 c-40 -37 -46 -48 -46 -84 0 -58 12 -84 57
-118 35 -26 47 -29 137 -34 80 -4 101 -8 110 -22 8 -13 8 -23 0 -35 -9 -15
-29 -19 -110 -21 -54 -2 -109 0 -121 3 -26 6 -123 88 -140 118 -18 32 -16 162
2 197 8 16 40 49 71 75 l57 46 115 -3 c97 -3 117 -6 126 -20z m547 -33 c7 -60
91 -259 112 -263 18 -4 109 196 117 257 6 50 29 73 58 55 13 -9 17 -25 16 -70
0 -52 -11 -84 -99 -279 -54 -121 -102 -226 -108 -233 -16 -21 -157 -12 -171
11 -19 31 4 52 63 55 l53 3 24 55 c29 66 29 64 4 64 -23 0 -32 16 -100 177
-67 158 -67 229 0 221 22 -3 26 -9 31 -53z"/>
</g>
</svg>
