<svg width="32" height="31" viewBox="0 0 32 31" fill="none" xmlns="http://www.w3.org/2000/svg">
<g clip-path="url(#clip0)">
<path d="M29.8661 0.512939H2.13388C0.957313 0.512939 0 1.43349 0 2.56474V19.4873C0 19.7703 0.238938 20.0001 0.533313 20.0001H31.4666C31.761 20.0001 31.9999 19.7703 31.9999 19.4873V2.56474C32 1.43349 31.0427 0.512939 29.8661 0.512939ZM30.9333 18.9745H1.06669V2.56474C1.06669 1.99858 1.54563 1.5386 2.13388 1.5386H29.8661C30.4544 1.5386 30.9333 1.99858 30.9333 2.56474V18.9745Z" fill="#57D0AF"/>
<path d="M31.4667 18.9744H0.533312C0.238937 18.9744 0 19.2041 0 19.4872V22.0507C0 23.1821 0.957312 24.1025 2.13387 24.1025H29.8661C31.0427 24.1025 32 23.1821 32 22.0507V19.4872C32 19.2041 31.7611 18.9744 31.4667 18.9744ZM30.9333 22.0508C30.9333 22.617 30.4544 23.0769 29.8661 23.0769H2.13387C1.54562 23.0769 1.06669 22.617 1.06669 22.0508V20H30.9334V22.0508H30.9333Z" fill="#57D0AF"/>
<path d="M17.5999 21.0256H14.3999C14.1056 21.0256 13.8666 21.2554 13.8666 21.5384C13.8666 21.8215 14.1056 22.0512 14.3999 22.0512H17.5999C17.8943 22.0512 18.1333 21.8215 18.1333 21.5384C18.1333 21.2554 17.8943 21.0256 17.5999 21.0256Z" fill="#57D0AF"/>
<path d="M29.3333 2.56421H2.66667C2.3723 2.56421 2.13336 2.79396 2.13336 3.07701V19.4873C2.13336 19.7703 2.3723 20.0001 2.66667 20.0001H29.3334C29.6277 20.0001 29.8667 19.7703 29.8667 19.4873V3.07701C29.8667 2.79396 29.6277 2.56421 29.3333 2.56421ZM28.8 18.9744H3.19999V3.58981H28.8V18.9744Z" fill="#57D0AF"/>
<path d="M22.9333 27.1797H9.06667C8.18455 27.1797 7.46667 27.87 7.46667 28.7181C7.46667 29.5663 8.18455 30.2566 9.06667 30.2566H22.9334C23.8155 30.2566 24.5334 29.5663 24.5334 28.7181C24.5334 27.87 23.8154 27.1797 22.9333 27.1797ZM22.9333 29.2309H9.06667C8.7723 29.2309 8.53336 29.0007 8.53336 28.7181C8.53336 28.4356 8.7723 28.2053 9.06667 28.2053H22.9334C23.2277 28.2053 23.4667 28.4356 23.4667 28.7181C23.4667 29.0007 23.2277 29.2309 22.9333 29.2309Z" fill="#57D0AF"/>
<path d="M21.8666 27.1794C20.097 27.1794 19.2 25.9717 19.2 23.5897C19.2 23.3067 18.961 23.0769 18.6666 23.0769H13.3333C13.039 23.0769 12.8 23.3067 12.8 23.5897C12.8 25.9717 11.903 27.1794 10.1333 27.1794C9.83897 27.1794 9.60004 27.4092 9.60004 27.6922C9.60004 27.9753 9.83897 28.205 10.1333 28.205H21.8666C22.161 28.205 22.3999 27.9753 22.3999 27.6922C22.3999 27.4092 22.161 27.1794 21.8666 27.1794ZM12.7312 27.1794C13.3877 26.48 13.7743 25.4384 13.8522 24.1025H18.1482C18.2255 25.4384 18.6122 26.48 19.2693 27.1794H12.7312Z" fill="#57D0AF"/>
<path d="M25.4849 15.6226L24.1974 14.3847L24.9137 13.696C25.0465 13.5683 25.0998 13.3826 25.0539 13.2078C25.008 13.0329 24.8699 12.8944 24.6902 12.8421L19.3568 11.3037C19.1686 11.2493 18.9654 11.299 18.8267 11.4324C18.6875 11.5657 18.6363 11.7616 18.6928 11.9421L20.2928 17.0703C20.3467 17.2436 20.4912 17.3764 20.6731 17.4206C20.8544 17.4636 21.048 17.4133 21.1808 17.2857L21.935 16.56L23.2224 17.7985C23.3222 17.8949 23.4582 17.9487 23.5995 17.9487C23.7408 17.9487 23.8768 17.8949 23.9765 17.7985L25.4848 16.3477C25.6934 16.1472 25.6934 15.8231 25.4849 15.6226ZM23.5995 16.7108L22.4272 15.5831C22.2912 15.4523 22.1131 15.3872 21.935 15.3872C21.7563 15.3872 21.5782 15.4528 21.4427 15.5826L21.0577 15.9528L19.999 12.5595L23.528 13.5775L23.1152 13.9744C23.0016 14.0841 22.9392 14.2298 22.9392 14.3847C22.9392 14.5401 23.0022 14.6867 23.1163 14.7954L24.3536 15.9852L23.5995 16.7108Z" fill="#57D0AF"/>
<path d="M22.4001 4.61499H7.46678C7.17241 4.61499 6.93347 4.84474 6.93347 5.12779V7.69191C6.93347 7.97496 7.17241 8.20471 7.46678 8.20471H22.4001C22.6945 8.20471 22.9334 7.97496 22.9334 7.69191V5.12779C22.9334 4.84474 22.6945 4.61499 22.4001 4.61499ZM21.8668 7.17911H8.0001V5.64065H21.8668V7.17911V7.17911Z" fill="#57D0AF"/>
<path d="M13.8667 10.2566H9.60002C9.30565 10.2566 9.06671 10.4863 9.06671 10.7694V12.8207C9.06671 13.1037 9.30565 13.3335 9.60002 13.3335H13.8667C14.1611 13.3335 14.4 13.1037 14.4 12.8207V10.7694C14.4 10.4863 14.1611 10.2566 13.8667 10.2566ZM13.3333 12.3079H10.1333V11.2822H13.3333V12.3079V12.3079Z" fill="#57D0AF"/>
<path d="M22.4001 4.61499H7.46678C7.17241 4.61499 6.93347 4.84474 6.93347 5.12779V14.8714C6.93347 15.1544 7.17241 15.3842 7.46678 15.3842H20.1633C20.3324 15.3842 20.4908 15.3078 20.5911 15.1775C20.6919 15.0473 20.7228 14.879 20.6743 14.7236L19.9991 12.559L22.2471 13.2078C22.4087 13.2545 22.5837 13.2247 22.7185 13.1278C22.854 13.0314 22.9335 12.8786 22.9335 12.7165V5.12779C22.9334 4.84474 22.6945 4.61499 22.4001 4.61499ZM21.8668 12.0273L19.3563 11.3032C19.1681 11.2488 18.9649 11.2986 18.8262 11.4319C18.687 11.5658 18.6358 11.7611 18.6923 11.9422L19.4465 14.3586H8.0001V5.64065H21.8668V12.0273V12.0273Z" fill="#57D0AF"/>
</g>
<defs>
<clipPath id="clip0">
<rect width="32" height="30.7692" fill="white"/>
</clipPath>
</defs>
</svg>
