<svg width="35" height="35" viewBox="0 0 35 35" fill="none" xmlns="http://www.w3.org/2000/svg">
<path fill-rule="evenodd" clip-rule="evenodd" d="M17.5 0C27.1652 0 35 8.03247 35 17.9427C35 25.8684 29.9915 32.5919 23.0422 34.9666C22.155 35.1434 21.84 34.5834 21.84 34.1056C21.84 33.5141 21.861 31.5821 21.861 29.1811C21.861 27.5081 21.301 26.4162 20.6727 25.8597C24.57 25.4152 28.665 23.8979 28.665 17.0064C28.665 15.0464 27.986 13.4469 26.8625 12.1905C27.0445 11.7372 27.6448 9.91196 26.691 7.44097C26.691 7.44097 25.2245 6.95972 21.8838 9.28022C20.4855 8.88297 18.9875 8.68347 17.5 8.67647C16.0125 8.68347 14.5163 8.88297 13.1198 9.28022C9.7755 6.95972 8.3055 7.44097 8.3055 7.44097C7.35525 9.91196 7.9555 11.7372 8.13575 12.1905C7.0175 13.4469 6.33325 15.0464 6.33325 17.0064C6.33325 23.8804 10.4195 25.4204 14.3063 25.8737C13.8057 26.3217 13.3525 27.1126 13.195 28.2729C12.1975 28.7314 9.6635 29.5241 8.1025 26.7819C8.1025 26.7819 7.17675 25.0582 5.41975 24.9322C5.41975 24.9322 3.7135 24.9094 5.30075 26.0224C5.30075 26.0224 6.447 26.5737 7.24325 28.6474C7.24325 28.6474 8.2705 31.8499 13.139 30.7649C13.1477 32.2646 13.1635 33.6786 13.1635 34.1056C13.1635 34.5799 12.8415 35.1346 11.9683 34.9684C5.01375 32.5971 0 25.8702 0 17.9427C0 8.03247 7.8365 0 17.5 0Z" fill="#57D0AF"/>
</svg>
