<svg width="35" height="35" viewBox="0 0 35 35" fill="none" xmlns="http://www.w3.org/2000/svg">
<path fill-rule="evenodd" clip-rule="evenodd" d="M35 35H28V22.7518C28 19.3918 26.5177 17.5175 23.8595 17.5175C20.9667 17.5175 19.25 19.4705 19.25 22.7518V35H12.25V12.25H19.25V14.8085C19.25 14.8085 21.4463 10.955 26.3953 10.955C31.346 10.955 35 13.9755 35 20.2265C35 26.4757 35 35 35 35ZM4.2735 8.61175C1.91275 8.61175 0 6.68325 0 4.305C0 1.9285 1.91275 0 4.2735 0C6.6325 0 8.54525 1.9285 8.54525 4.305C8.547 6.68325 6.6325 8.61175 4.2735 8.61175ZM0 35H8.75V12.25H0V35Z" fill="#57D0AF"/>
</svg>
